{"title":"Mastram (2014) Non Retail Dvd Rip - XviD{VikkyMaxx}[SilverRG]","uid":10122776,"size":737745702,"categoryP":"video","categoryS":"movies","magnet":"?xt=urn:btih:8259a183dea645ba9a688a25bf12dd2dd45fe390&amp;dn=Mastram+%282014%29+Non+Retail+Dvd+Rip+-+XviD%7BVikkyMaxx%7D%5BSilverRG%5D&amp;tr=udp%3A%2F%2Ftracker.openbittorrent.com%3A80&amp;tr=udp%3A%2F%2Fopen.demonii.com%3A1337&amp;tr=udp%3A%2F%2Ftracker.coppersurfer.tk%3A6969&amp;tr=udp%3A%2F%2Fexodus.desync.com%3A6969","seeders":0,"leechers":2,"uploader":"shailendramaxx","files":23,"time":1399704419,"description":"VikkyMaxx SilverRG Presents:-\n\n\n\nGeneral:-\n \nComplete name :Mastram (2014)Non-Retail Dvd Rip-XviD{VikkyMaxx}[SilverRG]\nFormat : AVI \nFormat/Info : Audio Video Interleave \nFile size : 693 MiB \nDuration : 1h 38mn \nOverall bit rate : 987 Kbps \n\nVideo:-\n \nID : 0 \nFormat : MPEG-4 Visual \nFormat profile : Advanced Simple@L5 \nFormat settings, BVOP : 2 \nFormat settings, QPel : No \nFormat settings, GMC : No warppoints \nFormat settings, Matrix : Default (H.263) \nCodec ID : XVID \nCodec ID/Hint : XviD \nDuration : 1h 38mn \nBit rate : 900 Kbps \nWidth : 640 pixels \nHeight : 272 pixels \nDisplay aspect ratio : 2.35:1 \nFrame rate : 29.970 fps \nColor space : YUV \nChroma subsampling : 4:2:0 \nBit depth : 8 bits \nScan type : Progressive \nCompression mode : Lossy \nBits/(Pixel*Frame) : 0.173 \nStream size : 632 MiB (91%) \nWriting library : XviD 1.2.1 (UTC 2008-12-04) \n\nAudio:-\n \nID : 1 \nFormat : MPEG Audio \nFormat version : Version 1 \nFormat profile : Layer 3 \nMode : Joint stereo \nMode extension : MS Stereo \nCodec ID : 55 \nCodec ID/Hint : MP3 \nDuration : 1h 38mn \nBit rate mode : Constant \nBit rate : 80.0 Kbps \nChannel(s) : 2 channels \nSampling rate : 32.0 KHz \nCompression mode : Lossy \nStream size : 56.2 MiB (8%) \nAlignment : Aligned on interleaves \nInterleave, duration : 133 ms (4.00 video frames) \nInterleave, preload duration : 216 ms \nTitle : VTS_01_1 T80 3_2ch 448Kbps DELAY 0ms \nWriting library : LAME3.99r \nEncoding settings : -m j -V 4 -q 2 -lowpass 13.5 -b 80 \nLanguage: HINDI\n\n\n\nSCREENS:-\n\n &lt;a href=&quot;\nhttp://i.imgur.com/itCGJdh.jpg&quot; rel=&quot;nofollow&quot; target=&quot;_NEW&quot;&gt;\nhttp://i.imgur.com/itCGJdh.jpg&lt;/a&gt;\n &lt;a href=&quot;\nhttp://i.imgur.com/RvSgJq3.jpg&quot; rel=&quot;nofollow&quot; target=&quot;_NEW&quot;&gt;\nhttp://i.imgur.com/RvSgJq3.jpg&lt;/a&gt;\n &lt;a href=&quot;\nhttp://i.imgur.com/oz9aFvY.jpg&quot; rel=&quot;nofollow&quot; target=&quot;_NEW&quot;&gt;\nhttp://i.imgur.com/oz9aFvY.jpg&lt;/a&gt;\n &lt;a href=&quot;\nhttp://i.imgur.com/l1wGvUl.jpg&quot; rel=&quot;nofollow&quot; target=&quot;_NEW&quot;&gt;\nhttp://i.imgur.com/l1wGvUl.jpg&lt;/a&gt;\n &lt;a href=&quot;\nhttp://i.imgur.com/1JWPCJr.jpg&quot; rel=&quot;nofollow&quot; target=&quot;_NEW&quot;&gt;\nhttp://i.imgur.com/1JWPCJr.jpg&lt;/a&gt;\n &lt;a href=&quot;\nhttp://i.imgur.com/0DlxuJU.jpg&quot; rel=&quot;nofollow&quot; target=&quot;_NEW&quot;&gt;\nhttp://i.imgur.com/0DlxuJU.jpg&lt;/a&gt;\n &lt;a href=&quot;\nhttp://i.imgur.com/n7jquTI.jpg&quot; rel=&quot;nofollow&quot; target=&quot;_NEW&quot;&gt;\nhttp://i.imgur.com/n7jquTI.jpg&lt;/a&gt;\n &lt;a href=&quot;\nhttp://i.imgur.com/kcnpdAX.jpg&quot; rel=&quot;nofollow&quot; target=&quot;_NEW&quot;&gt;\nhttp://i.imgur.com/kcnpdAX.jpg&lt;/a&gt;\n &lt;a href=&quot;\nhttp://i.imgur.com/IcsyasF.jpg&quot; rel=&quot;nofollow&quot; target=&quot;_NEW&quot;&gt;\nhttp://i.imgur.com/IcsyasF.jpg&lt;/a&gt;\n\n\n\nSAMPLE AND SCREENSHOTS INCLUDED\n\n    \n             \n             ********** PLEASE SEED AS LONG AS YOU CAN AFTER DOWNLOAD **********\n       \n                    ***** THANK YOU REGARDS - VIKKYMAXX (SilverRG) *****\n\t\t\t\t\n\t\t\n\n\n\n","torrent":{"xt":"urn:btih:8259a183dea645ba9a688a25bf12dd2dd45fe390","amp;dn":"Mastram+%282014%29+Non+Retail+Dvd+Rip+-+XviD%7BVikkyMaxx%7D%5BSilverRG%5D","amp;tr":["udp%3A%2F%2Ftracker.openbittorrent.com%3A80","udp%3A%2F%2Fopen.demonii.com%3A1337","udp%3A%2F%2Ftracker.coppersurfer.tk%3A6969","udp%3A%2F%2Fexodus.desync.com%3A6969"],"infoHash":"8259a183dea645ba9a688a25bf12dd2dd45fe390","infoHashBuffer":{"type":"Buffer","data":[130,89,161,131,222,166,69,186,154,104,138,37,191,18,221,45,212,95,227,144]},"announce":[],"urlList":[]}}